<?xml version="1.0" encoding="UTF-8"?>
<svg width="211px" height="27px" viewBox="0 0 211 27" version="1.1" xmlns="http://www.w3.org/2000/svg" xmlns:xlink="http://www.w3.org/1999/xlink">
    <!-- Generator: Sketch 48.1 (47250) - http://www.bohemiancoding.com/sketch -->
    <title>Logo</title>
    <desc>Created with Sketch.</desc>
    <defs>
        <polygon id="path-1" points="0 26.0973 210.169 26.0973 210.169 0.0003 0 0.0003"></polygon>
    </defs>
    <g id="Navbar-dark" stroke="none" stroke-width="1" fill="none" fill-rule="evenodd" transform="translate(-238.000000, -23.000000)">
        <rect id="Rectangle-4" fill="#1A212D" x="0" y="0" width="1581" height="70"></rect>
        <g id="Logo" transform="translate(238.000000, 23.000000)">
            <g id="Page-1">
                <path d="M57.0334,7.1597 C57.0334,5.7947 56.0244,4.9457 54.6594,4.9457 L50.7934,4.9457 L50.7934,9.3427 L54.6594,9.3427 C56.0244,9.3427 57.0334,8.4947 57.0334,7.1597 Z M45.2984,20.3347 L45.2984,0.5497 L55.3424,0.5497 C59.7944,0.5497 62.2264,3.5687 62.2264,7.1597 C62.2264,10.7207 59.7944,13.7387 55.3424,13.7387 L50.7934,13.7387 L50.7934,20.3347 L45.2984,20.3347 Z" id="Fill-1" fill="#FFFFFF"></path>
                <path d="M71.677,16.5679 L71.677,15.2919 C71.127,14.6389 70.139,14.2829 69.13,14.2829 C67.913,14.2829 66.848,14.8159 66.848,15.9449 C66.848,17.0719 67.912,17.6059 69.129,17.6059 C70.138,17.6059 71.127,17.2509 71.677,16.5679 Z M71.677,20.3349 L71.677,18.8239 C70.578,19.8909 69.071,20.6029 67.231,20.6029 C65.034,20.6029 62.307,19.1199 62.307,15.8849 C62.307,12.4129 65.033,11.2849 67.23,11.2849 C69.129,11.2849 70.578,11.8789 71.677,12.9469 L71.677,11.2259 C71.677,9.9789 70.615,9.1479 68.774,9.1479 C67.35,9.1479 65.868,9.6819 64.71,10.6619 L63.079,7.7829 C64.92,6.2109 67.291,5.5569 69.488,5.5569 C72.931,5.5569 76.073,6.8339 76.073,11.2849 L76.073,20.3349 L71.677,20.3349 Z" id="Fill-3" fill="#FFFFFF"></path>
                <path d="M78.4953,21.7612 C78.8213,21.9392 79.2663,22.0292 79.6233,22.0292 C80.6623,22.0292 81.3143,21.8202 81.5523,21.2272 L81.8783,20.5212 L76.1813,6.0452 L80.9883,6.0452 L84.2233,15.1262 L87.4873,6.0452 L92.3253,6.0452 L85.8553,22.3612 C84.6973,25.3882 82.5313,26.0372 79.8013,26.0972 C79.3863,26.0972 78.3163,25.9912 77.8433,25.8432 L78.4953,21.7612 Z" id="Fill-5" fill="#FFFFFF"></path>
                <path d="M111.2463,20.3345 L111.2463,11.5215 C111.2463,10.4245 110.7543,9.5935 109.3893,9.5935 C108.1423,9.5935 107.3993,10.3955 106.8503,10.9875 L106.8503,20.3345 L101.9033,20.3345 L101.9033,11.5215 C101.9033,10.4245 101.4273,9.5935 100.0313,9.5935 C98.8153,9.5935 98.0573,10.3955 97.5073,10.9875 L97.5073,20.3345 L93.1103,20.3345 L93.1103,6.0455 L97.5073,6.0455 L97.5073,7.6645 C98.6053,6.8335 100.0723,5.5575 102.3273,5.5575 C104.3753,5.5575 105.8503,6.4175 106.4443,8.1085 C107.2753,6.8625 109.1143,5.5575 111.3703,5.5575 C114.0113,5.5575 115.6423,6.9225 115.6423,9.8605 L115.6423,20.3345 L111.2463,20.3345 Z" id="Fill-7" fill="#FFFFFF"></path>
                <path d="M124.8703,9.0776 C122.8833,9.0776 122.1103,10.4416 121.9323,11.5406 L127.8383,11.5406 C127.7203,10.4416 126.9773,9.0776 124.8703,9.0776 M117.2433,13.0656 C117.2433,8.9106 120.3533,5.5566 124.8353,5.5566 C129.0793,5.5566 132.1303,8.6736 132.1303,13.5406 L132.1303,14.2886 L121.9923,14.2886 C122.2593,15.9366 123.5063,16.9566 125.5833,16.9566 C126.5923,16.9566 128.3433,16.5696 129.1443,15.7976 L131.0733,18.6756 C129.6483,19.9516 127.2743,20.5896 125.0793,20.5896 C120.6563,20.5896 117.2433,17.7246 117.2433,13.0656" id="Fill-9" fill="#FFFFFF"></path>
                <path d="M143.1213,20.3345 L143.1213,11.9675 C143.1213,10.2165 142.2953,9.5935 140.8703,9.5935 C139.5063,9.5935 138.7253,10.3355 138.1753,10.9875 L138.1753,20.3345 L133.7783,20.3345 L133.7783,6.0455 L138.1753,6.0455 L138.1753,7.6645 C139.2743,6.6555 140.8213,5.5575 143.2253,5.5575 C146.4903,5.5575 148.0673,7.4565 148.0673,10.0985 L148.0673,20.3345 L143.1213,20.3345 Z" id="Fill-11" fill="#FFFFFF"></path>
                <path d="M150.8157,16.3892 L150.8157,9.8922 L148.6177,9.8922 L148.6177,6.0452 L150.8157,6.0452 L150.8157,2.1982 L155.7607,2.1982 L155.7607,6.0452 L158.5087,6.0452 L158.5087,9.8922 L155.7607,9.8922 L155.7607,15.1132 C155.7607,15.9452 156.1677,16.5682 156.9687,16.5682 C157.4727,16.5682 157.9437,16.3892 158.0917,16.2112 L158.9647,19.6542 C158.4017,20.1882 157.1307,20.6032 155.4397,20.6032 C152.5317,20.6032 150.8157,19.1502 150.8157,16.3892" id="Fill-13" fill="#FFFFFF"></path>
                <polygon id="Fill-15" fill="#FFFFFF" points="173.759 20.3345 171.059 11.4605 168.388 20.3345 163.461 20.3345 159.217 6.0455 163.906 6.0455 166.221 14.8295 169.04 6.0455 173.107 6.0455 175.925 14.8295 178.21 6.0455 182.929 6.0455 178.686 20.3345"></polygon>
                <path d="M192.0334,16.5679 L192.0334,15.2919 C191.4834,14.6389 190.5474,14.2829 189.5374,14.2829 C188.3214,14.2829 187.2804,14.8159 187.2804,15.9449 C187.2804,17.0719 188.3064,17.6059 189.5234,17.6059 C190.5324,17.6059 191.4834,17.2509 192.0334,16.5679 Z M192.0334,20.3349 L192.0334,18.8239 C191.4834,19.8909 189.4774,20.6029 187.6384,20.6029 C185.4424,20.6029 182.7394,19.1199 182.7394,15.8849 C182.7394,12.4129 185.4284,11.2849 187.6244,11.2849 C189.5234,11.2849 191.4834,11.8789 192.0334,12.9469 L192.0334,11.2259 C192.0334,9.9789 191.0214,9.1479 189.1814,9.1479 C187.7574,9.1479 186.3014,9.6819 185.1434,10.6619 L183.5254,7.7829 C185.3664,6.2109 187.9674,5.5569 190.1634,5.5569 C193.6064,5.5569 196.9784,6.8339 196.9784,11.2849 L196.9784,20.3349 L192.0334,20.3349 Z" id="Fill-17" fill="#FFFFFF"></path>
                <mask id="mask-2" fill="white">
                    <use xlink:href="#path-1"></use>
                </mask>
                <g id="Clip-20"></g>
                <polygon id="Fill-19" fill="#FFFFFF" mask="url(#mask-2)" points="205.773 20.3343 210.169 20.3343 210.169 0.5493 205.773 0.5493"></polygon>
                <polygon id="Fill-21" fill="#FFFFFF" mask="url(#mask-2)" points="199.178 20.3343 203.574 20.3343 203.574 0.5493 199.178 0.5493"></polygon>
                <polygon id="Fill-22" fill="#FBBF15" mask="url(#mask-2)" points="26.3791 20.3345 28.5631 14.2885 36.7521 14.2885 38.9361 20.3345"></polygon>
                <polygon id="Fill-23" fill="#FBBF15" mask="url(#mask-2)" points="13.1897 20.3345 15.3737 14.2885 23.5627 14.2885 25.7467 20.3345"></polygon>
                <polygon id="Fill-24" fill="#FBBF15" mask="url(#mask-2)" points="19.7844 13.19 21.9684 7.144 30.1574 7.144 32.3414 13.19"></polygon>
                <polygon id="Fill-25" fill="#FBBF15" mask="url(#mask-2)" points="6.595 13.19 8.779 7.144 16.968 7.144 19.152 13.19"></polygon>
                <polygon id="Fill-26" fill="#FBBF15" mask="url(#mask-2)" points="0.0002 20.3345 2.1842 14.2885 10.3732 14.2885 12.5572 20.3345"></polygon>
                <polygon id="Fill-27" fill="#FBBF15" mask="url(#mask-2)" points="13.1897 6.0454 15.3737 -0.0006 23.5627 -0.0006 25.7467 6.0454"></polygon>
            </g>
        </g>
    </g>
</svg>